<svg xmlns="http://www.w3.org/2000/svg" viewBox="0 0 36 24">
  <rect width="36" height="24" fill="#fff"/>
  <path fill="#b22234" d="M0 0h36v2H0zm0 4h36v2H0zm0 4h36v2H0zm0 4h36v2H0zm0 4h36v2H0zm0 4h36v2H0z"/>
  <path fill="#3c3b6e" d="M0 0h16v13H0z"/>
  <g fill="#fff">
    <circle cx="3" cy="3" r="1"/><circle cx="8" cy="3" r="1"/><circle cx="13" cy="3" r="1"/>
    <circle cx="5.5" cy="6.5" r="1"/><circle cx="10.5" cy="6.5" r="1"/>
    <circle cx="3" cy="10" r="1"/><circle cx="8" cy="10" r="1"/><circle cx="13" cy="10" r="1"/>
  </g>
</svg>
